<?xml version="1.0" encoding="utf-8"?>
<!-- Generator: Adobe Illustrator 24.1.1, SVG Export Plug-In . SVG Version: 6.00 Build 0)  -->
<svg version="1.1" id="Layer_1" xmlns="http://www.w3.org/2000/svg" xmlns:xlink="http://www.w3.org/1999/xlink" x="0px" y="0px"
	 viewBox="0 0 500 63.8" style="enable-background:new 0 0 500 63.8;" xml:space="preserve">
<path style="fill:#111111;" d="M32.8,31.6l9.5,3c-1.5,5.3-3.9,9.3-7.3,11.8c-3.4,2.6-7.7,3.9-12.9,3.9c-6.5,0-11.8-2.2-15.9-6.6
	C2.1,39.3,0,33.2,0,25.6c0-8.1,2.1-14.4,6.3-18.9S15.9,0,22.8,0c5.9,0,10.8,1.8,14.5,5.3c2.2,2.1,3.9,5.1,5,9l-9.7,2.3
	c-0.6-2.5-1.8-4.5-3.6-6c-1.8-1.5-4-2.2-6.7-2.2c-3.6,0-6.5,1.3-8.8,3.9s-3.4,6.8-3.4,12.6c0,6.1,1.1,10.5,3.3,13.1
	c2.2,2.6,5.1,3.9,8.6,3.9c2.6,0,4.9-0.8,6.7-2.5C30.7,37.8,32,35.1,32.8,31.6z M48.6,31.4c0-3.1,0.8-6.1,2.3-9
	c1.5-2.9,3.7-5.1,6.5-6.6c2.8-1.5,5.9-2.3,9.4-2.3c5.3,0,9.7,1.7,13.1,5.2c3.4,3.5,5.1,7.8,5.1,13.1c0,5.3-1.7,9.7-5.2,13.3
	c-3.4,3.5-7.8,5.3-13,5.3c-3.2,0-6.3-0.7-9.2-2.2c-2.9-1.5-5.2-3.6-6.7-6.4C49.3,38.8,48.6,35.4,48.6,31.4z M58.1,31.8
	c0,3.5,0.8,6.2,2.5,8c1.7,1.9,3.7,2.8,6.1,2.8c2.4,0,4.5-0.9,6.1-2.8c1.6-1.9,2.5-4.6,2.5-8.1c0-3.5-0.8-6.1-2.5-8
	C71.2,22,69.2,21,66.7,21c-2.4,0-4.5,0.9-6.1,2.8C59,25.7,58.1,28.4,58.1,31.8z M91.5,14.2h8.6V19c3.1-3.7,6.7-5.6,11-5.6
	c2.3,0,4.2,0.5,5.9,1.4c1.7,0.9,3,2.3,4.1,4.2c1.5-1.9,3.2-3.3,5-4.2s3.7-1.4,5.7-1.4c2.6,0,4.8,0.5,6.6,1.6c1.8,1.1,3.1,2.6,4,4.6
	c0.6,1.5,1,3.9,1,7.3v22.5H134V29.3c0-3.5-0.3-5.8-1-6.8c-0.9-1.3-2.2-2-4-2c-1.3,0-2.5,0.4-3.7,1.2c-1.2,0.8-2,2-2.5,3.5
	c-0.5,1.5-0.8,4-0.8,7.3v16.9h-9.3V30.2c0-3.4-0.2-5.6-0.5-6.6c-0.3-1-0.8-1.7-1.5-2.2c-0.7-0.5-1.6-0.7-2.8-0.7
	c-1.4,0-2.7,0.4-3.9,1.2c-1.2,0.8-2,1.9-2.5,3.4c-0.5,1.5-0.7,3.9-0.7,7.3v17.1h-9.3V14.2z M152.4,14.2h8.7v5.2
	c1.1-1.8,2.7-3.2,4.6-4.3c1.9-1.1,4.1-1.7,6.4-1.7c4.1,0,7.6,1.6,10.4,4.8c2.9,3.2,4.3,7.7,4.3,13.4c0,5.9-1.4,10.5-4.3,13.7
	c-2.9,3.3-6.4,4.9-10.5,4.9c-1.9,0-3.7-0.4-5.3-1.2c-1.6-0.8-3.2-2.1-5-4v17.7h-9.3V14.2z M161.6,31.3c0,4,0.8,6.9,2.4,8.8
	c1.6,1.9,3.5,2.8,5.7,2.8c2.2,0,4-0.9,5.4-2.6c1.4-1.7,2.2-4.6,2.2-8.5c0-3.7-0.7-6.4-2.2-8.2c-1.5-1.8-3.3-2.7-5.5-2.7
	c-2.3,0-4.2,0.9-5.7,2.6C162.4,25.2,161.6,27.8,161.6,31.3z M201.1,25l-8.5-1.5c1-3.4,2.6-5.9,4.9-7.6c2.3-1.6,5.8-2.5,10.4-2.5
	c4.2,0,7.3,0.5,9.3,1.5c2,1,3.5,2.2,4.3,3.7c0.8,1.5,1.2,4.3,1.2,8.3l-0.1,10.9c0,3.1,0.1,5.4,0.4,6.9c0.3,1.5,0.9,3,1.7,4.7h-9.2
	c-0.2-0.6-0.5-1.5-0.9-2.8c-0.2-0.6-0.3-0.9-0.3-1.1c-1.6,1.5-3.3,2.7-5.1,3.5c-1.8,0.8-3.7,1.2-5.8,1.2c-3.6,0-6.5-1-8.6-3
	c-2.1-2-3.1-4.5-3.1-7.5c0-2,0.5-3.8,1.4-5.3c1-1.6,2.3-2.8,4-3.6c1.7-0.8,4.2-1.6,7.4-2.2c4.4-0.8,7.4-1.6,9.1-2.3v-0.9
	c0-1.8-0.4-3.1-1.3-3.8c-0.9-0.8-2.6-1.1-5-1.1c-1.7,0-3,0.3-3.9,1C202.4,22.2,201.7,23.3,201.1,25z M213.6,32.5
	c-1.2,0.4-3.1,0.9-5.7,1.4c-2.6,0.6-4.3,1.1-5.1,1.6c-1.2,0.9-1.8,2-1.8,3.3c0,1.3,0.5,2.4,1.5,3.4c1,1,2.2,1.4,3.7,1.4
	c1.7,0,3.3-0.6,4.8-1.7c1.1-0.8,1.9-1.9,2.2-3.1c0.2-0.8,0.4-2.3,0.4-4.5V32.5z M264,49.5h-9.3v-18c0-3.8-0.2-6.3-0.6-7.4
	c-0.4-1.1-1-2-1.9-2.6c-0.9-0.6-2-0.9-3.2-0.9c-1.6,0-3.1,0.4-4.3,1.3c-1.3,0.9-2.2,2.1-2.6,3.5c-0.5,1.5-0.7,4.2-0.7,8.1v16h-9.3
	V14.2h8.7v5.2c3.1-4,6.9-6,11.6-6c2.1,0,3.9,0.4,5.6,1.1c1.7,0.7,3,1.7,3.9,2.8c0.9,1.2,1.5,2.5,1.8,3.9c0.3,1.5,0.5,3.5,0.5,6.3
	V49.5z M269,14.2h9.9l8.4,25l8.2-25h9.7l-12.4,33.9l-2.2,6.1c-0.8,2.1-1.6,3.6-2.3,4.7c-0.7,1.1-1.6,2-2.6,2.6
	c-1,0.7-2.1,1.2-3.6,1.6c-1.4,0.4-3,0.6-4.8,0.6c-1.8,0-3.5-0.2-5.3-0.6l-0.8-7.3c1.5,0.3,2.8,0.4,3.9,0.4c2.2,0,3.8-0.6,4.8-1.9
	c1-1.3,1.8-2.9,2.4-4.9L269,14.2z M362.1,49.5h-9.3v-18c0-3.8-0.2-6.3-0.6-7.4c-0.4-1.1-1-2-1.9-2.6c-0.9-0.6-2-0.9-3.2-0.9
	c-1.6,0-3.1,0.4-4.3,1.3c-1.3,0.9-2.2,2.1-2.6,3.5c-0.5,1.5-0.7,4.2-0.7,8.1v16H330V14.2h8.7v5.2c3.1-4,6.9-6,11.6-6
	c2.1,0,3.9,0.4,5.6,1.1c1.7,0.7,3,1.7,3.9,2.8c0.9,1.2,1.5,2.5,1.8,3.9c0.3,1.5,0.5,3.5,0.5,6.3V49.5z M378.6,25l-8.5-1.5
	c1-3.4,2.6-5.9,4.9-7.6c2.3-1.6,5.8-2.5,10.4-2.5c4.2,0,7.3,0.5,9.3,1.5c2,1,3.5,2.2,4.3,3.7c0.8,1.5,1.2,4.3,1.2,8.3l-0.1,10.9
	c0,3.1,0.1,5.4,0.4,6.9c0.3,1.5,0.9,3,1.7,4.7H393c-0.2-0.6-0.5-1.5-0.9-2.8c-0.2-0.6-0.3-0.9-0.3-1.1c-1.6,1.5-3.3,2.7-5.1,3.5
	c-1.8,0.8-3.7,1.2-5.8,1.2c-3.6,0-6.5-1-8.6-3c-2.1-2-3.1-4.5-3.1-7.5c0-2,0.5-3.8,1.4-5.3c1-1.6,2.3-2.8,4-3.6
	c1.7-0.8,4.2-1.6,7.4-2.2c4.4-0.8,7.4-1.6,9.1-2.3v-0.9c0-1.8-0.4-3.1-1.3-3.8c-0.9-0.8-2.6-1.1-5-1.1c-1.7,0-3,0.3-3.9,1
	C379.9,22.2,379.1,23.3,378.6,25z M391,32.5c-1.2,0.4-3.1,0.9-5.7,1.4c-2.6,0.6-4.3,1.1-5.1,1.6c-1.2,0.9-1.8,2-1.8,3.3
	c0,1.3,0.5,2.4,1.5,3.4c1,1,2.2,1.4,3.7,1.4c1.7,0,3.3-0.6,4.8-1.7c1.1-0.8,1.9-1.9,2.2-3.1c0.2-0.8,0.4-2.3,0.4-4.5V32.5z
	 M408.7,14.2h8.6V19c3.1-3.7,6.7-5.6,11-5.6c2.3,0,4.2,0.5,5.9,1.4c1.7,0.9,3,2.3,4.1,4.2c1.5-1.9,3.2-3.3,5-4.2s3.7-1.4,5.7-1.4
	c2.6,0,4.8,0.5,6.6,1.6c1.8,1.1,3.1,2.6,4,4.6c0.6,1.5,1,3.9,1,7.3v22.5h-9.3V29.3c0-3.5-0.3-5.8-1-6.8c-0.9-1.3-2.2-2-4-2
	c-1.3,0-2.5,0.4-3.7,1.2s-2,2-2.5,3.5c-0.5,1.5-0.8,4-0.8,7.3v16.9H430V30.2c0-3.4-0.2-5.6-0.5-6.6c-0.3-1-0.8-1.7-1.5-2.2
	c-0.7-0.5-1.6-0.7-2.8-0.7c-1.4,0-2.7,0.4-3.9,1.2c-1.2,0.8-2,1.9-2.5,3.4c-0.5,1.5-0.7,3.9-0.7,7.3v17.1h-9.3V14.2z M490.2,38.3
	l9.3,1.6c-1.2,3.4-3.1,6-5.7,7.8c-2.6,1.8-5.8,2.7-9.7,2.7c-6.1,0-10.7-2-13.6-6c-2.3-3.2-3.5-7.3-3.5-12.1c0-5.8,1.5-10.4,4.6-13.7
	c3.1-3.3,6.9-5,11.6-5c5.2,0,9.4,1.7,12.4,5.2s4.5,8.8,4.3,15.9h-23.4c0.1,2.8,0.8,4.9,2.3,6.5c1.4,1.5,3.2,2.3,5.4,2.3
	c1.5,0,2.7-0.4,3.7-1.2C488.9,41.3,489.7,40,490.2,38.3z M490.7,28.8c-0.1-2.7-0.8-4.7-2.1-6.2c-1.3-1.4-2.9-2.1-4.8-2.1
	c-2,0-3.7,0.7-5,2.2c-1.3,1.5-2,3.5-2,6H490.7z"/>
</svg>
